<svg width="384" height="384" viewBox="0 0 384 384" fill="none" xmlns="http://www.w3.org/2000/svg">
<path d="M192.317 343.68C260.887 343.68 316.474 334.087 316.474 322.253C316.474 310.419 260.887 300.826 192.317 300.826C123.747 300.826 68.1602 310.419 68.1602 322.253C68.1602 334.087 123.747 343.68 192.317 343.68Z" fill="#E1E7EC"/>
<path d="M130.397 334.003L145.517 332.083L174.759 236.112L155.895 236.064L130.397 334.003Z" fill="#4C4434"/>
<path d="M259.997 318.403L271.757 315.763L241.968 236.304L227.712 236.266L259.997 318.403Z" fill="#4C4434"/>
<path d="M91.5171 55.0369L103.037 220.483L303.994 226.243L292.8 92.4769L91.5171 55.0369Z" fill="#2E7B3C"/>
<path d="M77.117 41.28L68.1602 55.3632L78.7202 235.843L90.557 230.083L77.117 41.28Z" fill="#4C4434"/>
<path d="M132.634 274.56L125.597 276.48L125.76 293.597L132.797 295.037L132.634 274.56Z" fill="#332D22"/>
<path d="M188.026 261.398V261.514L180.816 307.594L197.136 307.354L203.261 254.141L202.896 255.994C195.082 255.859 190.493 258.883 188.026 261.398Z" fill="#3D362A"/>
<path d="M205.315 236.198L204.451 243.648L205.315 236.198Z" fill="#3D362A"/>
<path opacity="0.35" d="M203.242 254.141L204.451 243.648L203.242 254.15V254.141Z" fill="black"/>
<path d="M191.971 236.208L188.026 261.446C190.493 258.931 195.091 255.907 202.877 256.051L203.242 254.198L204.451 243.696L205.315 236.246L191.971 236.208Z" fill="#3D362A"/>
<path opacity="0.35" d="M191.971 236.208L188.026 261.446C190.493 258.931 195.091 255.907 202.877 256.051L203.242 254.198L204.451 243.696L205.315 236.246L191.971 236.208Z" fill="black"/>
<path d="M191.971 236.16L187.335 236.15L175.402 305.318L180.797 307.603L188.007 261.514L188.026 261.398L191.971 236.16Z" fill="black"/>
<path opacity="0.35" d="M150.547 256.589C154.877 253.853 164.17 248.506 171.072 248.218L174.759 236.112H155.895L150.547 256.589Z" fill="black"/>
<path d="M149.549 236.045L123.082 331.238L130.397 334.003L155.894 236.064L149.549 236.045Z" fill="black"/>
<g opacity="0.55">
<path opacity="0.55" d="M232.196 123.226C240.989 133.68 246.596 145.805 247.287 159.485C247.383 169.958 244.868 178.685 239.808 185.827C235.033 192.687 227.966 197.617 219.879 199.728C219.479 199.797 219.068 199.771 218.679 199.653C218.291 199.534 217.936 199.327 217.642 199.046C217.198 198.575 216.93 197.965 216.884 197.318L216.202 185.174C216.087 183.336 215.669 181.529 214.964 179.827C214.45 178.571 213.697 177.427 212.746 176.458C217.432 176.677 222.057 175.326 225.888 172.618C229.728 169.91 231.543 164.179 231.399 155.338C231.254 152.841 230.73 150.38 229.844 148.042C228.972 145.806 227.757 143.721 226.244 141.859C226.702 140.456 226.925 138.987 226.906 137.51C226.894 134.44 226.308 131.399 225.178 128.544C225.178 128.342 224.218 128.285 222.183 128.362C220.148 128.438 217.143 129.792 213.024 132.413C209.37 130.922 205.524 129.953 201.6 129.533C197.853 129.102 194.061 129.251 190.359 129.974C185.751 126.394 182.4 124.33 180.336 123.802C178.272 123.274 177.255 123.12 177.274 123.322C176.507 126.195 176.344 129.195 176.794 132.134C177.022 133.724 177.468 135.275 178.119 136.742C176.796 138.378 175.834 140.276 175.296 142.31C174.71 144.646 174.528 147.065 174.759 149.462C175.911 158.534 178.599 164.822 182.957 168.355C186.983 171.76 191.845 174.03 197.04 174.931C196.355 175.549 195.828 176.323 195.504 177.187C195.067 178.354 194.815 179.581 194.756 180.826C192.967 181.525 191.02 181.714 189.13 181.373C186.644 181.104 184.215 179.232 181.805 175.738C181.066 174.592 180.185 173.544 179.184 172.618C177.973 171.386 176.385 170.595 174.672 170.371C172.964 170.256 172.368 170.582 172.877 171.331C173.444 172.164 174.197 172.854 175.076 173.347C176.283 174.299 177.313 175.456 178.119 176.765C178.879 177.871 179.556 179.033 180.144 180.24C180.637 181.757 181.965 183.357 184.128 185.04C186.292 186.723 189.952 187.398 195.111 187.066L195.888 195.331C195.92 195.622 195.89 195.917 195.799 196.195C195.708 196.473 195.558 196.728 195.36 196.944C194.957 197.386 194.228 197.472 193.172 197.203C180.231 191.443 177.12 189.062 169.527 179.059C163.155 170.685 159.109 160.776 157.796 150.336C156.471 136.301 160.57 124.848 168.202 116.016C175.834 107.184 186.576 104.17 199.815 105.331C213.044 107.174 223.191 112.531 232.196 123.226Z" fill="black"/>
</g>
<path opacity="0.1" d="M263.05 267.264L240.336 268.531C242.515 269.03 258.106 272.938 264.931 285.302H265.21L263.05 267.264Z" fill="black"/>
<path opacity="0.35" d="M140.688 294.461L136.599 310.176C139.431 307.786 147.072 301.93 155.021 300.883L157.354 293.203L140.688 294.461Z" fill="black"/>
<path d="M251.837 297.763L246.922 286.618L247.498 286.57L227.722 236.266H223.114L252.931 317.222L260.007 318.422L251.885 297.744L251.837 297.763Z" fill="black"/>
<path opacity="0.35" d="M262.935 292.349L260.516 285.629L247.488 286.589L251.875 297.744C252.192 297.36 256.685 292.349 262.935 292.349Z" fill="black"/>
<path d="M251.837 297.763L247.45 286.608L246.874 286.656L251.837 297.763Z" fill="black"/>
<path opacity="0.35" d="M251.837 297.763L247.45 286.608L246.874 286.656L251.837 297.763Z" fill="black"/>
<path d="M265.21 285.264L263.05 267.264L132.634 274.56L132.797 295.037L140.688 294.461L157.354 293.222L246.912 286.618L260.515 285.61L265.21 285.264Z" fill="#645A53"/>
<path opacity="0.2" d="M303.562 226.224H303.956L294.528 113.616L303.946 226.176L303.562 226.224Z" fill="black"/>
<path opacity="0.2" d="M199.066 223.229L249.524 224.688L249.85 219.754C250.57 216.394 256.33 212.314 256.33 212.314L288.97 213.754C288.97 213.754 289.104 214.598 289.258 215.894C289.711 219.189 289.859 222.518 289.7 225.84L299.3 226.118L291.437 137.52C284.717 165.37 263.828 208.426 199.066 223.229Z" fill="black"/>
<path opacity="0.2" d="M255.581 224.851L255.87 224.861L255.639 224.851H255.581Z" fill="black"/>
<path d="M289.258 215.885L256.33 214.925L289.21 215.942L256.33 216.336V219.13L287.53 220.464L256.33 221.29V223.632L287.53 224.045L265.68 225.178L289.68 225.869C289.849 222.535 289.707 219.193 289.258 215.885V215.885Z" fill="#F6AF30"/>
<path d="M289.258 215.885C289.104 214.589 288.97 213.744 288.97 213.744L256.33 212.304V214.886L289.258 215.885Z" fill="#E7E5EA"/>
<path d="M287.53 224.006L256.33 223.593V221.251L287.53 220.426L256.33 219.091V216.298L289.21 215.904L256.33 214.886V212.304C256.33 212.304 250.57 216.384 249.85 219.744L249.523 224.678L255.581 224.851H255.869L265.68 225.129L287.53 224.006Z" fill="#B3843C"/>
<path d="M299.52 86.448L77.1167 41.328L90.5567 230.131L312.96 232.051L299.52 86.448ZM91.5167 55.0368L292.8 92.4768L303.994 226.243H303.59L299.28 226.128L103.037 220.502L91.5167 55.0368Z" fill="#827A75"/>
<path opacity="0.2" d="M91.5171 55.0369L206.093 76.3489L91.5171 55.0369Z" fill="black"/>
<path d="M290.093 95.7985L292.8 92.4769L206.093 76.3489L91.5171 55.0369L92.0259 62.4577H92.0355L287.952 98.4289L290.093 95.7985Z" fill="#332D22"/>
<path opacity="0.2" d="M92.0352 62.4576L92.4384 68.1696L288.547 105.082L287.952 98.4288L92.0352 62.4576Z" fill="black"/>
<path opacity="0.2" d="M290.093 95.7985L287.952 98.4288L290.093 95.7985Z" fill="black"/>
<path d="M294.567 113.664L292.8 92.4768L290.093 95.7984L287.952 98.4288L288.547 105.082L291.418 137.51L299.28 226.109L303.591 226.224H303.6L303.984 226.234L294.567 113.664Z" fill="#4C4434"/>
<path opacity="0.35" d="M227.722 236.266L233.482 250.944C234.711 248.275 237.744 244.752 245.165 244.829L241.968 236.304L227.722 236.266Z" fill="black"/>
<path d="M312.96 232.003L90.557 230.083L78.7202 235.843L149.549 236.045L155.895 236.064L174.759 236.112L187.335 236.15L191.971 236.16L205.315 236.198L223.104 236.246L227.712 236.266L241.968 236.304L303.677 236.477L312.96 232.003Z" fill="#332D22"/>
</svg>
